<svg width="21" height="21" viewBox="0 0 21 21" fill="none" xmlns="http://www.w3.org/2000/svg">
<path d="M20.3232 10.5C20.3232 15.8516 15.9482 20.1875 10.6357 20.1875C5.28418 20.1875 0.948242 15.8516 0.948242 10.5C0.948242 5.1875 5.28418 0.8125 10.6357 0.8125C15.9482 0.8125 20.3232 5.1875 20.3232 10.5ZM9.50293 15.6562L16.6904 8.46875C16.9248 8.23438 16.9248 7.80469 16.6904 7.57031L15.792 6.71094C15.5576 6.4375 15.167 6.4375 14.9326 6.71094L9.07324 12.5703L6.2998 9.83594C6.06543 9.5625 5.6748 9.5625 5.44043 9.83594L4.54199 10.6953C4.30762 10.9297 4.30762 11.3594 4.54199 11.5938L8.60449 15.6562C8.83887 15.8906 9.26855 15.8906 9.50293 15.6562Z" fill="#B2C0B1"/>
</svg>
